<svg width="27" height="27" viewBox="0 0 27 27" fill="none" xmlns="http://www.w3.org/2000/svg">
<path d="M26.4205 13.2951C26.4339 20.6342 20.4982 26.6354 13.2198 26.6406C10.0763 26.6428 7.18876 25.5379 4.91964 23.6913C4.3296 23.2111 4.28549 22.3194 4.82168 21.7788L5.42184 21.1736C5.88042 20.7112 6.61252 20.6606 7.12058 21.067C8.79237 22.4047 10.9081 23.2031 13.2102 23.2031C18.6278 23.2031 23.0114 18.7821 23.0114 13.3203C23.0114 7.85764 18.6269 3.4375 13.2102 3.4375C10.61 3.4375 8.24846 4.45634 6.49496 6.11939L9.19847 8.84544C9.7354 9.38685 9.35513 10.3125 8.59586 10.3125H0.852273C0.381552 10.3125 0 9.92777 0 9.45313V1.645C0 0.879409 0.918004 0.495967 1.45494 1.03732L4.08484 3.68914C6.45644 1.40379 9.67074 0 13.2102 0C20.4977 0 26.407 5.9501 26.4205 13.2951ZM16.7838 17.5267L17.307 16.8483C17.7405 16.2863 17.6401 15.4764 17.0828 15.0394L14.9148 13.3391V7.73438C14.9148 7.02244 14.3424 6.44531 13.6364 6.44531H12.7841C12.078 6.44531 11.5057 7.02244 11.5057 7.73438V15.0203L14.9898 17.7528C15.5472 18.1899 16.3503 18.0887 16.7838 17.5267Z" fill="#E91414"/>
</svg>
