<svg width="22" height="23" viewBox="0 0 22 23" fill="none" xmlns="http://www.w3.org/2000/svg">
<path d="M14.9284 7.04839C14.2851 2.90746 12.7679 0 11.0022 0C9.23654 0 7.7193 2.90746 7.07602 7.04839H14.9284ZM6.74329 11.5C6.74329 12.5294 6.79653 13.5171 6.8897 14.4677H15.1103C15.2035 13.5171 15.2567 12.5294 15.2567 11.5C15.2567 10.4706 15.2035 9.48286 15.1103 8.53226H6.8897C6.79653 9.48286 6.74329 10.4706 6.74329 11.5ZM21.1482 7.04839C19.8794 3.8998 17.3107 1.46532 14.1387 0.482258C15.2212 2.0496 15.9665 4.40988 16.3569 7.04839H21.1482ZM7.86126 0.482258C4.69369 1.46532 2.12059 3.8998 0.856221 7.04839H5.64751C6.03347 4.40988 6.77879 2.0496 7.86126 0.482258ZM21.6229 8.53226H16.5344C16.6275 9.50605 16.6808 10.503 16.6808 11.5C16.6808 12.497 16.6275 13.494 16.5344 14.4677H21.6185C21.8625 13.5171 22 12.5294 22 11.5C22 10.4706 21.8625 9.48286 21.6229 8.53226ZM5.32365 11.5C5.32365 10.503 5.37689 9.50605 5.47005 8.53226H0.381529C0.141964 9.48286 0 10.4706 0 11.5C0 12.5294 0.141964 13.5171 0.381529 14.4677H5.46562C5.37689 13.494 5.32365 12.497 5.32365 11.5ZM7.07602 15.9516C7.7193 20.0925 9.23654 23 11.0022 23C12.7679 23 14.2851 20.0925 14.9284 15.9516H7.07602ZM14.1432 22.5177C17.3107 21.5347 19.8838 19.1002 21.1527 15.9516H16.3614C15.971 18.5901 15.2256 20.9504 14.1432 22.5177ZM0.856221 15.9516C2.12503 19.1002 4.69369 21.5347 7.8657 22.5177C6.78322 20.9504 6.03791 18.5901 5.64751 15.9516H0.856221Z" fill="#709E33"/>
</svg>
